<?xml version="1.0" encoding="UTF-8" standalone="no"?>
<!-- Created with Inkscape (http://www.inkscape.org/) -->

<svg
   width="109.10859mm"
   height="129.11287mm"
   viewBox="0 0 109.10859 129.11287"
   version="1.1"
   id="svg5"
   xml:space="preserve"
   inkscape:version="1.2.2 (b0a8486541, 2022-12-01)"
   sodipodi:docname="spaceship.svg"
   xmlns:inkscape="http://www.inkscape.org/namespaces/inkscape"
   xmlns:sodipodi="http://sodipodi.sourceforge.net/DTD/sodipodi-0.dtd"
   xmlns="http://www.w3.org/2000/svg"
   xmlns:svg="http://www.w3.org/2000/svg"><sodipodi:namedview
     id="namedview7"
     pagecolor="#505050"
     bordercolor="#ffffff"
     borderopacity="1"
     inkscape:showpageshadow="0"
     inkscape:pageopacity="0"
     inkscape:pagecheckerboard="1"
     inkscape:deskcolor="#505050"
     inkscape:document-units="mm"
     showgrid="false"
     inkscape:zoom="0.88852722"
     inkscape:cx="200.33151"
     inkscape:cy="324.13188"
     inkscape:window-width="1920"
     inkscape:window-height="1008"
     inkscape:window-x="0"
     inkscape:window-y="35"
     inkscape:window-maximized="1"
     inkscape:current-layer="layer1" /><defs
     id="defs2" /><g
     inkscape:label="Layer 1"
     inkscape:groupmode="layer"
     id="layer1"
     transform="translate(-70.97913,-36.123376)"><path
       id="rect356"
       style="fill:#ffffff;stroke-width:1;stroke-linecap:round;stroke-linejoin:round"
       d="m 123.33459,36.123376 c -0.34146,0 -0.39687,0.863494 -0.39687,6.184119 v 6.184119 l -1.20045,0.02429 c -0.66032,0.0132 -1.29779,0.08376 -1.41645,0.157096 -0.11866,0.0733 -0.35918,1.060222 -0.53485,2.192631 -0.17567,1.132409 -0.54383,3.308946 -0.81804,4.836914 -0.2742,1.527969 -0.67814,3.909218 -0.89762,5.291667 -0.21947,1.382448 -0.58358,3.59529 -0.80873,4.917529 -0.22515,1.322249 -0.40906,2.989117 -0.40876,3.704167 2.7e-4,0.715049 -0.2294,2.847994 -0.51057,4.739762 -0.72639,4.887225 -1.35314,9.919058 -1.35134,10.847917 8e-4,0.436559 -0.17012,1.270004 -0.37982,1.852083 -0.20971,0.58208 -0.38371,1.534577 -0.38654,2.116667 -0.003,0.582079 -0.21451,2.576382 -0.47077,4.431771 -0.38239,2.768657 -0.54434,3.373437 -0.90227,3.373437 -0.33338,0 -0.47914,0.358365 -0.61857,1.521354 -0.35875,2.992441 0.37122,2.696811 -6.22132,2.520771 -5.72339,-0.15282 -5.76865,-0.14949 -6.074051,0.42117 -0.169223,0.3162 -0.213391,0.7213 -0.0987,0.9002 0.987761,1.54069 1.116361,3.78189 0.278531,4.84622 -0.486119,0.61755 -0.619572,1.19427 -0.727599,3.14451 -0.100177,1.80851 -0.164407,1.03969 -0.264583,-3.16777 l -0.132292,-5.55625 0.785999,-1.32292 c 0.432235,-0.727603 0.879085,-1.441973 0.993215,-1.587493 0.11413,-0.14552 0.67449,-0.980712 1.24489,-1.855701 l 1.03714,-1.5906 0.0863,-16.202629 0.0858,-16.202112 h -5.577438 c -5.526201,9e-5 -5.580428,0.0059 -5.853389,0.595313 -0.151527,0.327419 -0.588098,1.279927 -0.970484,2.116666 -0.994264,2.175678 -1.917173,4.167151 -3.401859,7.342188 -1.500708,3.209297 -2.688748,5.767353 -3.379122,7.276041 -0.572437,1.250959 -1.632819,3.51759 -3.325379,7.106027 -1.149233,2.436527 -1.223067,2.72139 -1.120345,4.334619 0.09212,1.446768 0.214739,1.807981 0.756543,2.226221 0.355669,0.274549 0.92474,0.734586 1.264522,1.022676 0.339784,0.28809 0.68776,0.523999 0.77308,0.523999 0.08532,0 0.372601,0.19686 0.638721,0.4377 0.444396,0.402169 0.482861,0.968547 0.472322,6.945315 -0.01132,6.42847 -0.01902,6.52045 -0.658358,7.56594 -0.35594,0.58209 -0.773551,1.29646 -0.928108,1.5875 -0.154556,0.29104 -0.570083,1.00542 -0.922941,1.5875 -1.264957,2.0867 -1.256305,2.01721 -1.365292,11.37708 -0.05761,4.94771 -0.154568,9.23633 -0.21549,9.53017 -0.06092,0.29383 -1.140272,1.60353 -2.398304,2.91042 -1.258031,1.3069 -3.13065,3.29428 -4.161503,4.41627 l -1.874304,2.03967 0.07286,2.72283 c 0.04007,1.49739 0.09834,2.74801 0.129708,2.77967 0.03137,0.0316 0.467527,-0.0523 0.96945,-0.18655 1.92046,-0.51397 5.441971,-1.32602 5.750036,-1.32602 0.210201,0 0.321944,0.45975 0.321944,1.32292 0,1.2673 0.375892,1.76584 0.698149,0.92604 0.331923,-0.86497 0.624768,-0.31705 0.624768,1.16892 0,1.50646 0.03565,1.58775 0.933276,2.14251 0.513183,0.31717 1.082038,0.71395 1.264006,0.8816 1.523013,1.40315 1.865768,1.49551 5.555733,1.49551 h 3.540869 l 0.498678,0.92604 0.498677,0.92605 h 2.289266 2.28875 l 0.328662,-0.79375 c 0.285395,-0.689 0.464666,-0.79375 1.355472,-0.79375 h 1.025778 v -2.37299 c 0,-1.93202 0.0697,-2.34626 0.373103,-2.22983 0.20496,0.0786 0.510453,0.47564 0.679033,0.88263 0.26388,0.63706 0.4973,0.76302 1.67793,0.90485 1.87931,0.22577 5.80997,0.20457 6.13399,-0.0331 0.14576,-0.10691 0.43403,-0.52173 0.64028,-0.92191 0.20625,-0.40018 0.53339,-0.7276 0.72708,-0.7276 0.24793,0 0.3532,-0.41114 0.35605,-1.38906 0.002,-0.76399 0.0915,-1.26328 0.19844,-1.1095 0.10691,0.15378 0.58126,0.43606 1.0542,0.62736 0.69347,0.28049 0.8599,0.49683 0.8599,1.11776 0,0.44033 0.16991,0.83532 0.39687,0.92242 0.21829,0.0838 0.39688,0.37771 0.39688,0.65319 0,0.27547 -0.17859,0.50075 -0.39688,0.50075 -0.28663,0 -0.39687,0.29398 -0.39687,1.05833 v 1.05833 l 1.65364,0.004 c 1.50362,0.004 1.59409,0.0343 0.99477,0.33744 -0.92318,0.46707 -1.00154,1.18423 -0.15244,1.39734 0.67532,0.16948 0.95344,0.64233 0.37775,0.64233 -0.16586,0 -0.4495,0.20264 -0.63045,0.4501 -0.37221,0.50902 0.009,1.40199 0.59893,1.40199 0.53476,0 0.38405,0.3814 -0.26252,0.66507 -0.32742,0.14365 -0.59531,0.43956 -0.59531,0.65784 0,0.32714 0.56954,0.41005 3.24115,0.47129 1.78262,0.0409 3.24114,0.18121 3.24114,0.31213 0,0.13092 -0.26788,0.27648 -0.59531,0.32298 -0.51023,0.0725 -0.60686,0.26773 -0.67696,1.3689 -0.14486,2.27564 -0.11003,2.28779 6.53913,2.28307 3.14252,-0.002 5.84469,-0.0915 6.00481,-0.19844 0.55591,-0.37119 0.81648,-1.2588 0.69814,-2.37711 -0.10337,-0.97678 -0.20197,-1.12448 -0.7524,-1.12448 -0.34852,0 -0.63407,-0.11528 -0.63407,-0.25632 0,-0.14754 1.37648,-0.288 3.24114,-0.33073 2.67161,-0.0612 3.24115,-0.14415 3.24115,-0.47129 0,-0.21828 -0.2679,-0.51419 -0.59532,-0.65784 -0.72479,-0.31799 -0.77504,-0.66507 -0.0966,-0.66507 0.27407,0 0.55516,-0.21755 0.62477,-0.48369 0.14112,-0.53967 -0.35646,-1.3684 -0.82166,-1.3684 -0.16586,0 -0.30179,-0.11906 -0.30179,-0.26458 0,-0.14552 0.23121,-0.26458 0.51367,-0.26458 1.01352,0 0.94911,-1.17387 -0.0873,-1.59267 -0.40023,-0.16172 -0.09,-0.23086 1.09503,-0.24288 l 1.65364,-0.0165 v -1.05833 c 0,-0.87632 -0.0891,-1.05833 -0.52038,-1.05833 -0.38098,0 -0.47791,-0.12434 -0.36018,-0.46302 0.0885,-0.25466 0.31272,-0.58759 0.49816,-0.74001 0.18543,-0.15241 0.37692,-0.61973 0.42581,-1.03818 0.0672,-0.57503 0.2827,-0.82367 0.88263,-1.01906 0.43656,-0.14218 0.88165,-0.38976 0.98857,-0.54984 0.10691,-0.16008 0.19622,0.33414 0.19844,1.09813 0.003,0.9839 0.10754,1.38906 0.35915,1.38906 0.19536,0 0.57941,0.41672 0.8537,0.92604 l 0.49868,0.92604 h 2.54868 c 3.99982,0 4.90785,-0.18778 5.28236,-1.09192 0.1732,-0.41815 0.40502,-0.76016 0.5147,-0.76016 0.2853,0 0.52968,1.42049 0.52968,3.07578 v 1.42214 h 1.07229 c 0.95335,0 1.1027,0.0879 1.34875,0.79375 l 0.27699,0.79375 h 2.30632 2.30632 l 0.44131,-0.92605 0.44184,-0.92604 h 3.5574 3.55741 l 1.53996,-1.05058 c 2.56199,-1.74743 2.466,-1.61492 2.466,-3.41064 0,-1.28239 0.0858,-1.62419 0.40566,-1.62419 0.22285,0 0.47331,0.17859 0.55707,0.39687 0.31294,0.81551 0.62477,0.35325 0.62477,-0.92604 0,-1.51066 -0.0128,-1.5055 2.25981,-0.90951 0.86732,0.22745 2.11242,0.51709 2.76727,0.64338 0.65484,0.12629 1.39899,0.30985 1.65364,0.40824 0.42356,0.16365 0.46303,-0.0661 0.46303,-2.69906 V 143.665 l -2.32183,-2.50785 c -1.27723,-1.37934 -3.16346,-3.38085 -4.19147,-4.4478 l -1.86914,-1.93993 -0.16123,-9.45162 c -0.0988,-5.79297 -0.27128,-9.70212 -0.44545,-10.09861 -0.15629,-0.35579 -0.69278,-1.36136 -1.19218,-2.23449 -0.49938,-0.87311 -1.03251,-1.86458 -1.18494,-2.20296 -0.15243,-0.33838 -0.45562,-0.79308 -0.67334,-1.01079 -0.33018,-0.33018 -0.39584,-1.48729 -0.39584,-6.97374 v -6.577371 l 0.85989,-0.609782 c 0.47294,-0.33526 1.0385,-0.753489 1.25678,-0.929659 0.21828,-0.17616 0.67683,-0.539593 1.01854,-0.807703 0.50295,-0.3946 0.64752,-0.813373 0.75861,-2.197282 0.14922,-1.858948 0.36222,-1.243661 -2.75022,-7.927165 -0.64379,-1.382448 -1.38807,-2.989795 -1.65416,-3.571875 -0.2661,-0.582089 -0.844,-1.832235 -1.28416,-2.778125 -0.44016,-0.945879 -1.17714,-2.553236 -1.63763,-3.571875 -0.46049,-1.018649 -0.94813,-2.060444 -1.08365,-2.315104 -0.45032,-0.846229 -0.70734,-1.378248 -1.24747,-2.579687 -1.89657,-4.218576 -2.23183,-4.955495 -2.49701,-5.490104 -0.29226,-0.5892 -0.3526,-0.595313 -5.87406,-0.595313 h -5.57899 l 0.094,16.205729 0.0941,16.205729 1.0175,1.5875 c 0.55975,0.87312 1.122,1.708418 1.24902,1.856218 0.12702,0.1478 0.54955,0.813112 0.93948,1.478459 l 0.709,1.20975 -0.0424,5.66528 c -0.0309,4.09161 -0.0872,5.00383 -0.20257,3.28404 -0.12977,-1.93562 -0.277,-2.53871 -0.78652,-3.22202 -0.51731,-0.69376 -0.60541,-1.06643 -0.50281,-2.13424 0.0684,-0.71163 0.32025,-1.68585 0.55914,-2.16473 0.33233,-0.66616 0.36669,-0.99666 0.14728,-1.40663 -0.27731,-0.51816 -0.4798,-0.53217 -6.14537,-0.43408 l -5.85907,0.10128 -0.22996,-2.050514 c -0.18767,-1.673188 -0.31359,-2.050521 -0.68471,-2.050521 -0.47328,0 -0.46081,0.0701 -1.36891,-7.672917 -0.14506,-1.236928 -0.37487,-2.288815 -0.51108,-2.337325 -0.13621,-0.0485 -0.24691,-0.643817 -0.24546,-1.322916 0.001,-0.67909 -0.17255,-2.484717 -0.38706,-4.012675 -0.56718,-4.040076 -1.19231,-9.435542 -1.28726,-11.1125 -0.0453,-0.800359 -0.28704,-2.645833 -0.53744,-4.101042 -0.2504,-1.455208 -0.63159,-3.776926 -0.84697,-5.159375 -0.91438,-5.868964 -2.10628,-12.401731 -2.29547,-12.580111 -0.0396,-0.0373 -0.5486,-0.10891 -1.13068,-0.15968 -0.77581,-0.0677 -1.10429,-0.233768 -1.23042,-0.621667 -0.0946,-0.29104 -0.18392,-3.059256 -0.19843,-6.151563 -0.0226,-4.809575 -0.0838,-5.622396 -0.42323,-5.622396 -0.33784,0 -0.4004,0.737912 -0.42013,4.960938 -0.0127,2.728507 -0.10205,5.496723 -0.19844,6.151562 l -0.17518,1.190625 h -1.45521 c -1.22146,0 -1.48286,-0.085 -1.62729,-0.529166 -0.0946,-0.29104 -0.18393,-3.059256 -0.19844,-6.151563 -0.0226,-4.809575 -0.0838,-5.622396 -0.42323,-5.622396 z m 16.42174,67.837204 c 0.0526,-0.002 0.12325,0.0176 0.21342,0.0522 0.46197,0.17728 0.52668,1.20413 0.16588,2.62206 l -0.20154,0.79375 -0.0315,-0.95911 c -0.0172,-0.52752 -0.10593,-1.33323 -0.1974,-1.79059 -0.10441,-0.52205 -0.10661,-0.71353 0.0512,-0.7183 z m -28.47992,0.21136 c 0.34094,-0.11364 0.35576,1.94541 0.0196,2.72748 -0.16699,0.38864 -0.23233,0.16026 -0.24598,-0.8599 -0.0102,-0.76399 -0.0273,-1.47527 -0.0382,-1.58078 -0.0109,-0.1055 0.10815,-0.23465 0.26458,-0.2868 z m -12.037506,17.62218 c 0.02053,-0.0111 0.04461,0.029 0.06976,0.12557 0.06708,0.25744 0.06265,0.61462 -0.0098,0.79375 -0.07248,0.17914 -0.127348,-0.0316 -0.121956,-0.46819 0.0034,-0.27285 0.02779,-0.43267 0.06201,-0.45113 z m 52.802976,9.72343 0.63459,0.65578 c 0.60239,0.62227 0.64038,0.86284 0.74724,4.7563 l 0.11265,4.10104 -0.74724,0.61546 -0.74724,0.61547 v -5.37176 z m -52.916664,0.0279 v 5.33817 c 0,2.93579 -0.03839,5.33766 -0.08578,5.33766 -0.04739,0 -0.345049,-0.27556 -0.661459,-0.61236 -0.539614,-0.5744 -0.575675,-0.86697 -0.575675,-4.71651 0,-4.03552 0.01104,-4.11425 0.661458,-4.72529 z m 35.070724,18.48828 c 0.10557,-0.0236 0.11886,0.15681 0.11886,0.60719 0,0.45312 0.16759,0.8484 0.39687,0.93638 0.506,0.19417 0.52171,1.22732 0.0186,1.22732 -0.20816,0 -0.41779,0.26789 -0.46561,0.59531 -0.0695,0.47593 -0.12176,0.509 -0.26148,0.16588 -0.0961,-0.23606 -0.25688,-0.97571 -0.35708,-1.64383 -0.14105,-0.94064 -0.0861,-1.31075 0.24339,-1.64021 0.14659,-0.14658 0.24311,-0.23391 0.30644,-0.24804 z m -16.81447,0.38964 c 0.30315,0 0.32843,0.50622 0.0951,1.91823 -0.0902,0.54571 -0.26781,0.99218 -0.39429,0.99218 -0.12648,0 -0.22996,-0.11906 -0.22996,-0.26458 0,-0.14552 -0.1786,-0.26458 -0.39688,-0.26458 -0.57772,0 -0.4859,-0.87535 0.1323,-1.26143 0.29104,-0.18176 0.52916,-0.50797 0.52916,-0.72502 0,-0.21705 0.11907,-0.3948 0.26459,-0.3948 z m -0.38706,3.88451 c 0.0666,-0.026 0.16496,0.0839 0.32349,0.34003 0.30977,0.50058 0.27291,0.53603 -0.52916,0.50747 -0.47417,-0.0169 -0.6612,-0.084 -0.41548,-0.14883 0.24571,-0.0648 0.48384,-0.29323 0.52917,-0.50746 0.0236,-0.11127 0.052,-0.17558 0.092,-0.19121 z m 17.36845,0.50178 c 0.0707,0.004 0.14432,0.0161 0.21704,0.0351 0.72802,0.19038 0.66239,0.34107 -0.14831,0.34107 -0.37239,0 -0.61014,-0.10792 -0.52865,-0.23978 0.0611,-0.0989 0.24769,-0.1495 0.45992,-0.13643 z m -16.98139,1.96371 c 0.7276,0 1.32291,0.11906 1.32291,0.26458 0,0.14552 -0.59531,0.26458 -1.32291,0.26458 -0.7276,0 -1.32292,-0.11906 -1.32292,-0.26458 0,-0.14552 0.59532,-0.26458 1.32292,-0.26458 z m 16.40416,0 c 0.7276,0 1.32292,0.11906 1.32292,0.26458 0,0.14552 -0.59532,0.26458 -1.32292,0.26458 -0.7276,0 -1.32291,-0.11906 -1.32291,-0.26458 0,-0.14552 0.59531,-0.26458 1.32291,-0.26458 z m -16.08945,2.10529 c 0.86418,0.002 1.81918,0.14078 2.18332,0.416 0.46504,0.35174 0.30875,0.38861 -1.65364,0.38861 -1.74904,0 -2.16684,-0.0763 -2.16731,-0.39636 v -5.2e-4 c 9.1e-4,-0.2743 0.77395,-0.40958 1.63763,-0.40773 z m 15.90858,0.01 c 0.80994,0 1.50379,0.13292 1.50379,0.39843 0,0.32146 -0.41476,0.39517 -2.18281,0.38757 -2.0266,-0.009 -2.13548,-0.0365 -1.52136,-0.38757 0.46445,-0.26551 1.39045,-0.39843 2.20038,-0.39843 z" /></g></svg>
